# xmcd CD database file
#
# Track frame offsets:
#	150
#	26932
#	55869
#	93791
#	114618
#	144325
#	185757
#	208454
#	234766
#	264303
#	295080
#	297582
#	318149
#
# Disc length: 4365 seconds
#
# Revision: 0
# Processed by: cddbd v1.5.2PL0 Copyright (c) Steve Scherf et al.
# Submitted via: CDex 1.51
#
DISCID=c2110b0d
DTITLE=Ben Webster - Ben Webster with the Mike Renzi Trio
DYEAR=1963
DGENRE=Jazz
TTITLE0=Perdido
TTITLE1=My Romance
TTITLE2=Lover, Come Back To Me
TTITLE3=Danny Boy
TTITLE4=On Green Dolphin Street
TTITLE5=Go Home
TTITLE6=Bye Bye Blackbird
TTITLE7=Sometimes I'm Happy
TTITLE8=How Long Has This Been Going On?
TTITLE9=Embraceable You
TTITLE10=The Theme
TTITLE11=My Romance
TTITLE12=Wee Dot
EXTD=YEAR: 1963
EXTT0=
EXTT1=
EXTT2=
EXTT3=
EXTT4=
EXTT5=
EXTT6=
EXTT7=
EXTT8=
EXTT9=
EXTT10=
EXTT11=
EXTT12=
PLAYORDER=
